<?xml version="1.0" encoding="UTF-8"?>
<svg width="148px" height="42px" viewBox="0 0 148 42" version="1.1" xmlns="http://www.w3.org/2000/svg" xmlns:xlink="http://www.w3.org/1999/xlink">
    <title>Group 31</title>
    <g id="Page-1" stroke="none" stroke-width="1" fill="none" fill-rule="evenodd">
        <g id="desktop-copy-2" transform="translate(-16.000000, -19.000000)" fill="#00585F" stroke="#00585F" stroke-width="0.5">
            <g id="Group-6-Copy" transform="translate(17.000000, 20.000000)">
                <path d="M92.1541333,19.9632313 C92.1541333,16.8910408 94.2910937,15.0016382 96.9010024,15.0016382 C103.219281,15.0016382 103.219281,24.9528559 96.9010024,24.9528559 C94.2910937,24.9528559 92.1541333,23.068186 92.1541333,19.9632313 L92.1541333,19.9632313 Z M101.644678,25.0453238 L101.794759,27.4786123 L104.699506,27.4786123 L104.699506,12.4795224 L101.735507,12.4795224 L101.644678,14.852379 C100.726811,13.146456 98.7409952,12.1442353 96.662222,12.1442353 C92.4571325,12.1442353 89.0982409,14.9430267 89.0982409,19.9632313 C89.0982409,25.0740835 92.3322429,27.9038189 96.6029704,27.8750592 C98.4163532,27.8750592 100.670398,26.9609378 101.644678,25.0453238 L101.644678,25.0453238 Z M114.724735,15.0970185 C115.884931,15.0970185 117.100121,15.521497 118.017989,16.4337981 L119.981452,14.3332484 C118.403656,12.7514653 116.714808,12.1132913 114.698835,12.1132913 C110.458975,12.1132913 106.992224,14.8196148 106.992224,19.9930831 C106.992224,25.1672795 110.487359,27.8750592 114.698835,27.8750592 C116.802089,27.8750592 118.614762,27.173177 120.242585,25.5331465 L118.164166,23.4311406 C117.217915,24.4333612 115.944892,24.8312643 114.698835,24.8312643 C112.17869,24.8312643 110.045988,23.1581055 110.045988,19.9930831 C110.045988,17.0133605 112.089281,15.0970185 114.724735,15.0970185 L114.724735,15.0970185 Z M63.0459867,25.1672795 C61.3280452,25.132695 59.27943,24.4959773 57.9198364,22.9480505 L56.322172,25.1672795 C58.2462524,27.3886927 60.6141876,27.9336707 62.9899283,27.9336707 C66.7809663,27.9336707 69.1914775,25.9882049 69.2205711,23.1901416 C69.2429235,19.3232371 65.7208239,18.714915 63.0200863,18.4728239 C61.154548,18.2900724 59.8779776,17.8029779 59.848884,16.5557538 C59.848884,15.3675052 61.0917484,14.7286032 62.9597703,14.7606393 C64.4130311,14.7606393 65.6594435,15.0653464 66.8157367,16.1596709 L68.5336783,14.0897011 C66.9065655,12.5978376 65.1623687,12.0867159 62.9026475,12.0867159 C60.177074,12.0867159 56.818892,13.3299356 56.818892,16.6482216 C56.8494048,19.9632313 60.0248648,20.8755324 62.7781127,21.1522079 C64.9498435,21.362627 66.1959011,21.8810295 66.1657431,23.2199934 C66.1355851,24.6190251 64.5049243,25.1672795 63.0459867,25.1672795 L63.0459867,25.1672795 Z M79.3579166,15.2156977 C82.1434514,15.2156977 83.9781222,17.1669882 83.9781222,19.9930831 C83.9781222,22.7944228 82.0231742,24.7690123 79.3579166,24.7690123 C76.687337,24.7690123 74.7575798,22.6746514 74.7575798,19.9930831 C74.7575798,17.312971 76.534773,15.2156977 79.3579166,15.2156977 L79.3579166,15.2156977 Z M49.6418725,0 C48.6902094,0 47.9187341,0.776829077 47.9187341,1.72615039 L47.9187341,11.0473625 L41.2453009,18.6253595 L41.2453009,6.20881721 L38.1610246,6.20881721 L38.1610246,27.4786123 L41.2453009,27.4786123 L41.2453009,20.5417016 L47.9187341,27.9411765 L47.9187341,38.2722646 C47.9187341,39.2264665 48.6853984,40 49.6418867,40 L74.4932538,40 L74.4932538,25.2870509 C75.5913598,27.1458735 77.8730786,27.8120791 79.6513362,27.8120791 C84.1899378,27.8120791 87.0386269,24.5269213 87.0386269,19.9930831 C87.0386269,15.4603371 84.0093446,12.204303 79.6513362,12.1740872 C77.6960334,12.1740872 75.6215178,13.0863883 74.4932538,14.9117187 L74.3115962,12.4795224 L71.4373615,12.4795224 L71.4373615,36.8062179 L51.5705245,36.7987854 C51.2568992,36.7986681 51.0026557,36.5503637 51.0026557,36.229948 L51.0026557,26.7574357 L44.4037305,19.5372966 L51.0026557,12.1948378 L51.0026557,3.7412293 C51.0026557,3.42159161 51.2663325,3.16247406 51.5776455,3.16247406 L142.344282,3.16247406 C142.66184,3.16247406 142.919272,3.41388046 142.919272,3.74629154 L142.919272,36.2147555 C142.919272,36.5371889 142.65587,36.7986184 142.334134,36.7986739 L77.5445338,36.8098584 L77.5445338,39.976337 L144.273596,39.9994032 C145.227062,39.9997328 146,39.2189202 146,38.28125 L146,1.71875 C146,0.769510586 145.224792,0 144.276862,0 L49.6418725,0 Z M124.41113,18.5019477 C124.886917,16.1272707 126.723007,14.8804106 128.950441,14.8804106 C131.412753,14.8804106 133.100182,16.1272707 133.278646,18.5019477 L124.41113,18.5019477 Z M128.856774,12.08708 C124.294046,12.08708 121.179257,15.3391095 121.179257,19.9017074 C121.179257,24.7096727 124.264597,27.8419309 129.067525,27.8419309 C131.321924,27.8419309 133.841359,26.9896975 135.35529,25.2870509 L133.363798,23.3117332 C132.477508,24.345626 130.611615,24.921912 129.127841,24.921912 C126.455133,24.921912 124.618688,23.4311406 124.351169,21.1522079 L136.211423,21.1522079 C136.773781,15.03149 133.572421,12.08708 128.856774,12.08708 L128.856774,12.08708 Z M19.9569605,24.9528559 C17.3516641,24.9528559 15.217897,23.068186 15.217897,19.9632313 C15.217897,16.8906768 17.3516641,15.0016382 19.9569605,15.0016382 C26.2784321,15.0016382 26.2784321,24.9528559 19.9569605,24.9528559 L19.9569605,24.9528559 Z M24.7038297,14.852379 C23.7895101,13.146456 21.8005013,12.1442353 19.7274049,12.1442353 C15.5127358,12.1442353 12.163069,14.9430267 12.163069,19.9632313 C12.163069,25.0740835 15.391749,27.9038189 19.6624765,27.8750592 C21.4719565,27.8750592 23.7256461,26.9609378 24.7038297,25.0453238 L24.8542649,27.4786123 L27.7586577,27.4786123 L27.7586577,12.4795224 L24.7971421,12.4795224 L24.7038297,14.852379 Z M7.97554913,24.8312643 C6.55563954,24.8312643 5.87158515,23.9473588 5.87158515,22.3684881 L5.87158515,15.2153336 L10.1753091,15.2153336 L10.1753091,12.5104663 L5.90671035,12.5104663 L5.90671035,6.20881721 L2.82101477,6.20881721 L2.82101477,12.5104663 L0,12.5104663 L0,15.2153336 L2.82101477,15.2153336 L2.82101477,22.3684881 C2.82101477,25.8939168 4.62801116,27.7527395 7.80169713,27.6617278 C8.83487472,27.6617278 9.73464751,27.4483964 10.7387315,26.9896975 L9.84676431,24.3135899 C9.25389352,24.618661 8.57161312,24.8312643 7.97554913,24.8312643 L7.97554913,24.8312643 Z M31.4356203,27.4786123 L34.4915127,27.4786123 L34.4915127,6.20881721 L31.4356203,6.20881721 L31.4356203,27.4786123 Z" id="Fill-2-Copy-4"></path>
            </g>
        </g>
    </g>
</svg>